<svg width="21" height="22" viewBox="0 0 21 22" fill="none" xmlns="http://www.w3.org/2000/svg">
<path id="Path 43" d="M19.6293 10.3582H18.9717V10.0294C18.9713 9.76789 18.8673 9.5172 18.6824 9.33229C18.4975 9.14738 18.2468 9.04333 17.9853 9.04297H13.3805C13.119 9.04333 12.8683 9.14738 12.6834 9.33229C12.4985 9.5172 12.3945 9.76789 12.3941 10.0294V10.3582H3.18323V3.77508C3.19419 3.2848 3.38736 2.81619 3.72506 2.4606C4.06277 2.10501 4.5208 1.88794 5.00986 1.85171C5.49892 1.81549 5.98394 1.9627 6.37035 2.26465C6.75676 2.5666 7.01687 3.00164 7.09995 3.48495C6.64666 3.56776 6.23657 3.80641 5.94064 4.15961C5.64471 4.51281 5.48154 4.95835 5.47938 5.41914V5.74795C5.47938 5.83515 5.51402 5.91879 5.57568 5.98045C5.63735 6.04212 5.72098 6.07676 5.80819 6.07676H9.10459C9.1918 6.07676 9.27543 6.04212 9.3371 5.98045C9.39876 5.91879 9.4334 5.83515 9.4334 5.74795V5.42466C9.4329 4.95626 9.26588 4.5033 8.96218 4.1467C8.65847 3.79011 8.23788 3.5531 7.77553 3.47804C7.73541 2.78186 7.42037 2.13013 6.89973 1.66622C6.37908 1.20232 5.69547 0.964237 4.99929 1.00436C4.3031 1.04448 3.65137 1.35952 3.18747 1.88017C2.72356 2.40081 2.48548 3.08442 2.5256 3.7806V10.3582H1.86798C1.63503 10.3574 1.40932 10.4391 1.23093 10.5889C1.05255 10.7388 0.933031 10.947 0.893606 11.1765C0.854181 11.4061 0.8974 11.6423 1.01559 11.843C1.13378 12.0438 1.31928 12.1961 1.53917 12.2731V14.9657C1.54116 16.1301 1.98397 17.2506 2.77853 18.1018C3.57309 18.953 4.66048 19.4718 5.82201 19.5539V19.8993C5.81336 20.0339 5.83243 20.1689 5.87803 20.2959C5.92363 20.4229 5.9948 20.5391 6.08713 20.6375C6.17946 20.7359 6.291 20.8143 6.41484 20.8679C6.53867 20.9214 6.67218 20.949 6.8071 20.9489C6.94203 20.9488 7.0755 20.921 7.19926 20.8673C7.32302 20.8136 7.43444 20.735 7.52664 20.6365C7.61883 20.538 7.68984 20.4216 7.73526 20.2946C7.78069 20.1675 7.79956 20.0325 7.79073 19.8979V19.5691H13.7093V19.8979C13.7093 20.1595 13.8133 20.4104 13.9983 20.5954C14.1832 20.7804 14.4341 20.8843 14.6958 20.8843C14.9574 20.8843 15.2083 20.7804 15.3933 20.5954C15.5783 20.4104 15.6822 20.1595 15.6822 19.8979V19.5525C16.8423 19.4688 17.9277 18.9495 18.7208 18.0987C19.5139 17.248 19.9559 16.1288 19.9581 14.9657V12.2717C20.1787 12.1955 20.365 12.0434 20.4838 11.8426C20.6026 11.6418 20.6461 11.4052 20.6066 11.1753C20.5671 10.9453 20.4471 10.7369 20.2681 10.5872C20.089 10.4375 19.8627 10.3564 19.6293 10.3582ZM8.77578 5.42466H6.15082C6.17246 5.09129 6.32015 4.77864 6.56391 4.5502C6.80767 4.32175 7.12922 4.19463 7.4633 4.19463C7.79737 4.19463 8.11893 4.32175 8.36269 4.5502C8.60645 4.77864 8.75414 5.09129 8.77578 5.42466ZM17.6564 10.3582V10.0294C17.6564 9.94219 17.6911 9.85856 17.7528 9.7969C17.8144 9.73523 17.8981 9.70059 17.9853 9.70059C18.0725 9.70059 18.1561 9.73523 18.2178 9.7969C18.2794 9.85856 18.3141 9.94219 18.3141 10.0294V10.3582H17.6564ZM13.0517 10.0294C13.0517 9.94219 13.0864 9.85856 13.148 9.7969C13.2097 9.73523 13.2933 9.70059 13.3805 9.70059H17.0596C17.0204 9.80583 16.9998 9.9171 16.9988 10.0294V13.6477H14.0381C13.9509 13.6477 13.8673 13.6823 13.8056 13.744C13.744 13.8057 13.7093 13.8893 13.7093 13.9765C13.7093 14.0637 13.744 14.1474 13.8056 14.209C13.8673 14.2707 13.9509 14.3053 14.0381 14.3053H16.9988V14.9657H13.0517V10.0294ZM7.13034 19.8979C7.13034 19.9851 7.0957 20.0687 7.03404 20.1304C6.97237 20.1921 6.88874 20.2267 6.80153 20.2267C6.71433 20.2267 6.63069 20.1921 6.56903 20.1304C6.50736 20.0687 6.47272 19.9851 6.47272 19.8979V19.5691H7.13034V19.8979ZM15.0246 19.8979C15.0246 19.9411 15.0161 19.9838 14.9995 20.0237C14.983 20.0636 14.9588 20.0999 14.9283 20.1304C14.8977 20.1609 14.8615 20.1851 14.8216 20.2017C14.7817 20.2182 14.7389 20.2267 14.6958 20.2267C14.6526 20.2267 14.6098 20.2182 14.5699 20.2017C14.53 20.1851 14.4938 20.1609 14.4633 20.1304C14.4327 20.0999 14.4085 20.0636 14.392 20.0237C14.3755 19.9838 14.367 19.9411 14.367 19.8979V19.5691H15.0246V19.8979ZM15.3534 18.9115H6.14391C5.09764 18.9104 4.09453 18.4943 3.35457 17.7546C2.61462 17.015 2.19825 16.012 2.19679 14.9657V12.3408H10.7486C10.8359 12.3408 10.9195 12.3061 10.9812 12.2444C11.0428 12.1828 11.0775 12.0991 11.0775 12.0119C11.0775 11.9247 11.0428 11.8411 10.9812 11.7794C10.9195 11.7178 10.8359 11.6831 10.7486 11.6831H1.86798C1.82402 11.6832 1.7805 11.6744 1.74011 11.657C1.69971 11.6397 1.6633 11.6142 1.63312 11.5823C1.60197 11.5515 1.57754 11.5147 1.56137 11.474C1.5452 11.4333 1.53764 11.3898 1.53917 11.346C1.53917 11.2588 1.57381 11.1752 1.63548 11.1135C1.69714 11.0519 1.78077 11.0172 1.86798 11.0172H12.3941V14.9657C12.3945 15.0807 12.4251 15.1935 12.4828 15.2929C12.5405 15.3923 12.6233 15.4748 12.7229 15.5322V16.281C12.7229 16.3241 12.7314 16.3669 12.7479 16.4068C12.7645 16.4467 12.7887 16.4829 12.8192 16.5135C12.8497 16.544 12.886 16.5682 12.9259 16.5847C12.9658 16.6013 13.0085 16.6098 13.0517 16.6098C13.0949 16.6098 13.1376 16.6013 13.1775 16.5847C13.2174 16.5682 13.2537 16.544 13.2842 16.5135C13.3147 16.4829 13.339 16.4467 13.3555 16.4068C13.372 16.3669 13.3805 16.3241 13.3805 16.281V15.6233H14.0381V16.281C14.0381 16.3241 14.0466 16.3669 14.0632 16.4068C14.0797 16.4467 14.1039 16.4829 14.1344 16.5135C14.165 16.544 14.2012 16.5682 14.2411 16.5847C14.281 16.6013 14.3238 16.6098 14.367 16.6098C14.4101 16.6098 14.4529 16.6013 14.4928 16.5847C14.5327 16.5682 14.5689 16.544 14.5995 16.5135C14.63 16.4829 14.6542 16.4467 14.6707 16.4068C14.6873 16.3669 14.6958 16.3241 14.6958 16.281V15.6233H15.3534V16.281C15.3534 16.3682 15.388 16.4518 15.4497 16.5135C15.5114 16.5751 15.595 16.6098 15.6822 16.6098C15.7694 16.6098 15.853 16.5751 15.9147 16.5135C15.9764 16.4518 16.011 16.3682 16.011 16.281V15.6233H16.6686V16.281C16.6686 16.3241 16.6771 16.3669 16.6937 16.4068C16.7102 16.4467 16.7344 16.4829 16.7649 16.5135C16.7955 16.544 16.8317 16.5682 16.8716 16.5847C16.9115 16.6013 16.9543 16.6098 16.9974 16.6098C17.0406 16.6098 17.0834 16.6013 17.1233 16.5847C17.1632 16.5682 17.1994 16.544 17.2299 16.5135C17.2605 16.4829 17.2847 16.4467 17.3012 16.4068C17.3178 16.3669 17.3263 16.3241 17.3263 16.281V15.5322C17.426 15.4749 17.5088 15.3924 17.5666 15.293C17.6243 15.1936 17.6548 15.0807 17.6551 14.9657V12.3408H19.2991V14.9657C19.298 16.0122 18.8818 17.0155 18.1418 17.7555C17.4018 18.4955 16.3985 18.9117 15.352 18.9128L15.3534 18.9115ZM19.6362 11.6748H17.6564V11.0172H19.6293C19.6733 11.0171 19.7168 11.026 19.7572 11.0433C19.7976 11.0607 19.834 11.0861 19.8642 11.1181C19.8943 11.1478 19.9181 11.1834 19.9343 11.2225C19.9504 11.2617 19.9585 11.3037 19.9581 11.346C19.9581 11.4332 19.9235 11.5169 19.8618 11.5785C19.8002 11.6402 19.7165 11.6748 19.6293 11.6748H19.6362Z" fill="#006EFF" stroke="#006EFF" stroke-width="0.2"/>
</svg>
